<?xml version="1.0" encoding="UTF-8" standalone="no" ?>
<!DOCTYPE svg PUBLIC "-//W3C//DTD SVG 1.1//EN" "http://www.w3.org/Graphics/SVG/1.1/DTD/svg11.dtd">
<svg xmlns="http://www.w3.org/2000/svg" xmlns:xlink="http://www.w3.org/1999/xlink" version="1.1" width="40" height="40" viewBox="0 0 40 40" xml:space="preserve">
<desc>Created with Fabric.js 4.6.0</desc>
<defs>
</defs>
<g transform="matrix(2.37 0 0 0.43 20 4.69)" id="dJuJcZViLNXPH6GsKJG9t"  >
<path style="stroke: rgb(186,106,108); stroke-width: 0; stroke-dasharray: none; stroke-linecap: butt; stroke-dashoffset: 0; stroke-linejoin: miter; stroke-miterlimit: 4; fill: rgb(98,192,203); fill-rule: nonzero; opacity: 1;" vector-effect="non-scaling-stroke"  transform=" translate(0, 0)" d="M -8.17308 -8.17308 L 8.173070000000001 -8.17308 L 8.173070000000001 8.173070000000001 L -8.17308 8.173070000000001 z" stroke-linecap="round" />
</g>
<g transform="matrix(2.37 0 0 0.43 19.97 14.59)" id="J_1sPCqqByzcZB_raNHEI"  >
<path style="stroke: rgb(186,106,108); stroke-width: 0; stroke-dasharray: none; stroke-linecap: butt; stroke-dashoffset: 0; stroke-linejoin: miter; stroke-miterlimit: 4; fill: rgb(98,192,203); fill-rule: nonzero; opacity: 1;" vector-effect="non-scaling-stroke"  transform=" translate(0, 0)" d="M -8.17308 -8.17308 L 8.173070000000001 -8.17308 L 8.173070000000001 8.173070000000001 L -8.17308 8.173070000000001 z" stroke-linecap="round" />
</g>
<g transform="matrix(2.37 0 0 0.43 19.97 24.63)" id="MWbJvvXjklk9laDNk7Kjx"  >
<path style="stroke: rgb(186,106,108); stroke-width: 0; stroke-dasharray: none; stroke-linecap: butt; stroke-dashoffset: 0; stroke-linejoin: miter; stroke-miterlimit: 4; fill: rgb(98,192,203); fill-rule: nonzero; opacity: 1;" vector-effect="non-scaling-stroke"  transform=" translate(0, 0)" d="M -8.17308 -8.17308 L 8.173070000000001 -8.17308 L 8.173070000000001 8.173070000000001 L -8.17308 8.173070000000001 z" stroke-linecap="round" />
</g>
<g transform="matrix(2.37 0 0 0.43 19.97 34.72)" id="N8nhZ4fbXqqFaxKmSJH9i"  >
<path style="stroke: rgb(186,106,108); stroke-width: 0; stroke-dasharray: none; stroke-linecap: butt; stroke-dashoffset: 0; stroke-linejoin: miter; stroke-miterlimit: 4; fill: rgb(98,192,203); fill-rule: nonzero; opacity: 1;" vector-effect="non-scaling-stroke"  transform=" translate(0, 0)" d="M -8.17308 -8.17308 L 8.173070000000001 -8.17308 L 8.173070000000001 8.173070000000001 L -8.17308 8.173070000000001 z" stroke-linecap="round" />
</g>
</svg>